<svg width="10" height="6" viewBox="0 0 10 6" fill="none" xmlns="http://www.w3.org/2000/svg">
<path d="M6.68966 1.10345C6.37931 1.10345 6.13793 0.862069 6.13793 0.551724C6.13793 0.258621 6.37931 0 6.68966 0H9.44828C9.74138 0 10 0.258621 10 0.551724V3.31034C10 3.62069 9.74138 3.86207 9.44828 3.86207C9.13793 3.86207 8.89655 3.62069 8.89655 3.31034V1.89655L5.96552 4.81034C5.75862 5.03448 5.39655 5.03448 5.18966 4.81034L3.36207 3L1 5.36207C0.793103 5.58621 0.431034 5.58621 0.224138 5.36207C0 5.15517 0 4.7931 0.224138 4.58621L2.98276 1.82759C3.18966 1.60345 3.55172 1.60345 3.75862 1.82759L5.58621 3.63793L8.10345 1.10345H6.68966Z" fill="#616161"/>
</svg>
